<svg width="500" height="500" viewBox="0 0 500 500" fill="none" xmlns="http://www.w3.org/2000/svg">
<rect width="500" height="500" rx="60" fill="#4A90E2"/>
<path d="M161.12 338.88C147.68 338.88 134.8 337.12 122.48 333.6C110.16 329.92 100.24 325.2 92.72 319.44L105.92 290.16C113.12 295.28 121.6 299.52 131.36 302.88C141.28 306.08 151.28 307.68 161.36 307.68C169.04 307.68 175.2 306.96 179.84 305.52C184.64 303.92 188.16 301.76 190.4 299.04C192.64 296.32 193.76 293.2 193.76 289.68C193.76 285.2 192 281.68 188.48 279.12C184.96 276.4 180.32 274.24 174.56 272.64C168.8 270.88 162.4 269.28 155.36 267.84C148.48 266.24 141.52 264.32 134.48 262.08C127.6 259.84 121.28 256.96 115.52 253.44C109.76 249.92 105.04 245.28 101.36 239.52C97.84 233.76 96.08 226.4 96.08 217.44C96.08 207.84 98.64 199.12 103.76 191.28C109.04 183.28 116.88 176.96 127.28 172.32C137.84 167.52 151.04 165.12 166.88 165.12C177.44 165.12 187.84 166.4 198.08 168.96C208.32 171.36 217.36 175.04 225.2 180L213.2 209.52C205.36 205.04 197.52 201.76 189.68 199.68C181.84 197.44 174.16 196.32 166.64 196.32C159.12 196.32 152.96 197.2 148.16 198.96C143.36 200.72 139.92 203.04 137.84 205.92C135.76 208.64 134.72 211.84 134.72 215.52C134.72 219.84 136.48 223.36 140 226.08C143.52 228.64 148.16 230.72 153.92 232.32C159.68 233.92 166 235.52 172.88 237.12C179.92 238.72 186.88 240.56 193.76 242.64C200.8 244.72 207.2 247.52 212.96 251.04C218.72 254.56 223.36 259.2 226.88 264.96C230.56 270.72 232.4 278 232.4 286.8C232.4 296.24 229.76 304.88 224.48 312.72C219.2 320.56 211.28 326.88 200.72 331.68C190.32 336.48 177.12 338.88 161.12 338.88ZM339.367 338.88C326.407 338.88 314.327 336.8 303.127 332.64C292.087 328.32 282.487 322.24 274.327 314.4C266.167 306.56 259.767 297.36 255.127 286.8C250.647 276.24 248.407 264.64 248.407 252C248.407 239.36 250.647 227.76 255.127 217.2C259.767 206.64 266.167 197.44 274.327 189.6C282.647 181.76 292.327 175.76 303.367 171.6C314.407 167.28 326.487 165.12 339.607 165.12C354.167 165.12 367.287 167.68 378.967 172.8C390.807 177.76 400.727 185.12 408.727 194.88L383.767 217.92C378.007 211.36 371.607 206.48 364.567 203.28C357.527 199.92 349.847 198.24 341.527 198.24C333.687 198.24 326.487 199.52 319.927 202.08C313.367 204.64 307.687 208.32 302.887 213.12C298.087 217.92 294.327 223.6 291.607 230.16C289.047 236.72 287.767 244 287.767 252C287.767 260 289.047 267.28 291.607 273.84C294.327 280.4 298.087 286.08 302.887 290.88C307.687 295.68 313.367 299.36 319.927 301.92C326.487 304.48 333.687 305.76 341.527 305.76C349.847 305.76 357.527 304.16 364.567 300.96C371.607 297.6 378.007 292.56 383.767 285.84L408.727 308.88C400.727 318.64 390.807 326.08 378.967 331.2C367.287 336.32 354.087 338.88 339.367 338.88Z" fill="white"/>
</svg>
